HIERARCHY
ROOT joint_Root
{
	OFFSET 0.0 0.0 0.0
	CHANNELS 6 Xposition Yposition Zposition Zrotation Xrotation Yrotation 
	JOINT Hips
	{
		OFFSET -17.1583 93.1646 452.98
		CHANNELS 6 Xposition Yposition Zposition Zrotation Xrotation Yrotation 
		JOINT Spine
		{
			OFFSET 15.7357 0.0 0.0
			CHANNELS 6 Xposition Yposition Zposition Zrotation Xrotation Yrotation 
			JOINT Chest
			{
				OFFSET 8.98455 -0.406207 0.0
				CHANNELS 6 Xposition Yposition Zposition Zrotation Xrotation Yrotation 
				JOINT Neck
				{
					OFFSET 16.3773 0.0 0.0
					CHANNELS 6 Xposition Yposition Zposition Zrotation Xrotation Yrotation 
					JOINT Head
					{
						OFFSET 6.45672 0.0 0.0
						CHANNELS 6 Xposition Yposition Zposition Zrotation Xrotation Yrotation 
						End Site
						{
							OFFSET 0.0 0.0 0.0
						}
					}
				}
				JOINT Shoulder_L
				{
					OFFSET 12.9942 -0.242716 4.98039
					CHANNELS 6 Xposition Yposition Zposition Zrotation Xrotation Yrotation 
					JOINT UpperArm_L
					{
						OFFSET 5.34809 0.0 0.0
						CHANNELS 6 Xposition Yposition Zposition Zrotation Xrotation Yrotation 
						JOINT LowerArm_L
						{
							OFFSET 24.3286 1.87007e-05 0.0
							CHANNELS 6 Xposition Yposition Zposition Zrotation Xrotation Yrotation 
							JOINT Hand_L
							{
								OFFSET 22.2916 0.0 0.0
								CHANNELS 6 Xposition Yposition Zposition Zrotation Xrotation Yrotation 
								End Site
								{
									OFFSET 0.0 0.0 0.0
								}
							}
						}
					}
				}
				JOINT Shoulder_R
				{
					OFFSET 12.9945 -0.242716 -4.98039
					CHANNELS 6 Xposition Yposition Zposition Zrotation Xrotation Yrotation 
					JOINT UpperArm_R
					{
						OFFSET -5.34813 0.0 0.0
						CHANNELS 6 Xposition Yposition Zposition Zrotation Xrotation Yrotation 
						JOINT LowerArm_R
						{
							OFFSET -24.3289 0.000322201 0.0
							CHANNELS 6 Xposition Yposition Zposition Zrotation Xrotation Yrotation 
							JOINT Hand_R
							{
								OFFSET -22.2915 -0.000108084 0.0
								CHANNELS 6 Xposition Yposition Zposition Zrotation Xrotation Yrotation 
								End Site
								{
									OFFSET 0.0 0.0 0.0
								}
							}
						}
					}
				}
			}
		}
		JOINT UpperLeg_L
		{
			OFFSET -2.19248 -6.46944 0.0
			CHANNELS 6 Xposition Yposition Zposition Zrotation Xrotation Yrotation 
			JOINT LowerLeg_L
			{
				OFFSET 39.0811 0.0 -1.23785e-05
				CHANNELS 6 Xposition Yposition Zposition Zrotation Xrotation Yrotation 
				JOINT Foot_L
				{
					OFFSET 40.9854 0.0 -1.26872e-05
					CHANNELS 6 Xposition Yposition Zposition Zrotation Xrotation Yrotation 
					JOINT Toes_L
					{
						OFFSET 11.7543 0.0 0.0
						CHANNELS 6 Xposition Yposition Zposition Zrotation Xrotation Yrotation 
						End Site
						{
							OFFSET 0.0 0.0 0.0
						}
					}
				}
			}
		}
		JOINT UpperLeg_R
		{
			OFFSET -2.19251 6.46944 0.0
			CHANNELS 6 Xposition Yposition Zposition Zrotation Xrotation Yrotation 
			JOINT LowerLeg_R
			{
				OFFSET -39.0811 -0.00228153 -0.0401928
				CHANNELS 6 Xposition Yposition Zposition Zrotation Xrotation Yrotation 
				JOINT Foot_R
				{
					OFFSET -40.9854 0.0 0.0
					CHANNELS 6 Xposition Yposition Zposition Zrotation Xrotation Yrotation 
					JOINT Toes_R
					{
						OFFSET -11.7543 0.0 0.0
						CHANNELS 6 Xposition Yposition Zposition Zrotation Xrotation Yrotation 
						End Site
						{
							OFFSET 0.0 0.0 0.0
						}
					}
				}
			}
		}
	}
}
MOTION
Frames:	7
Frame Time:	0.0333333
0.000000 0.000000 0.000000 0.000000 0.000000 -0.000000 -2.465290 89.585800 5.662670 -90.838000 5.547250 166.180000 15.735700 0.000005 -0.000001 120.499000 85.039100 -121.007000 8.984550 -0.406207 -0.000000 0.810306 5.064550 -1.051400 16.377300 -0.000001 -0.000001 -7.767940 3.495710 -0.467675 6.456720 -0.000001 -0.000000 3.147040 3.151700 -0.459850 12.994200 -0.242716 4.980390 -91.773600 5.226560 -71.226300 5.348090 -0.000007 -0.000001 -49.651500 -17.552200 20.105000 24.328600 0.000019 0.000005 0.000094 34.298600 -0.000004 22.291600 -0.000001 0.000005 -0.376249 4.129260 22.281700 12.994500 -0.242716 -4.980390 89.740700 1.158820 -77.397500 -5.348130 -0.000001 -0.000004 -61.511800 9.868430 -0.514411 -24.328900 0.000322 -0.000009 -0.929319 -0.522584 -60.446700 -22.291500 -0.000108 -0.000004 22.360900 5.635130 -13.615700 -2.192480 -6.469440 -0.000000 177.222000 -2.010290 -55.848300 39.081100 -0.000007 -0.000012 0.048168 -0.001237 88.518300 40.985400 -0.000006 -0.000013 -2.840000 -9.617270 -65.900200 11.754300 -0.000000 0.000003 0.002145 0.052709 -14.438800 -2.192510 6.469440 -0.000001 178.038000 7.909390 172.757000 -39.081100 -0.002282 -0.040193 0.028224 -0.037864 33.360500 -40.985400 0.000008 0.000006 -7.804730 6.813560 -66.347900 -11.754300 -0.000006 -0.000006 -0.044823 -0.278791 -28.040000
0.000000 0.000000 0.000000 0.000000 0.000000 -0.000000 -3.125340 92.541900 -4.250630 -92.705800 6.120930 163.421000 15.735700 0.000005 -0.000001 134.807000 85.704400 -136.341000 8.984550 -0.406207 -0.000000 -1.588510 6.178200 -2.984630 16.377300 -0.000001 -0.000001 -7.438470 2.974770 -0.407050 6.456720 -0.000001 -0.000000 4.227590 1.917610 1.024750 12.994200 -0.242716 4.980390 -90.978600 2.807630 -70.772700 5.348090 -0.000007 -0.000001 -44.401200 -18.642900 25.231500 24.328600 0.000019 0.000005 0.046787 39.419700 -0.073633 22.291600 -0.000001 0.000005 5.038430 3.347090 32.777100 12.994500 -0.242716 -4.980390 89.971500 0.133913 -77.977400 -5.348130 -0.000001 -0.000004 -63.148800 7.529260 -1.307760 -24.328900 0.000322 -0.000009 -2.401140 -0.770417 -72.170700 -22.291500 -0.000108 -0.000004 22.211600 5.660010 -16.086100 -2.192480 -6.469440 -0.000000 176.663000 1.042920 -56.692600 39.081100 -0.000007 -0.000012 0.079285 -0.030522 68.941200 40.985400 -0.000006 -0.000013 -3.167570 -7.098870 -68.648800 11.754300 -0.000000 0.000003 0.002234 0.057046 -14.262900 -2.192510 6.469440 -0.000001 174.621000 9.769210 177.963000 -39.081100 -0.002282 -0.040193 0.060734 -0.138775 22.476800 -40.985400 0.000008 0.000006 -6.001530 7.233710 -45.502700 -11.754300 -0.000006 -0.000006 -0.073880 -0.374465 -32.094400
0.000000 0.000000 0.000000 0.000000 0.000000 -0.000000 -2.856930 94.240200 -14.527200 -90.801100 4.534270 164.225000 15.735700 0.000005 -0.000001 137.374000 85.270900 -138.322000 8.984550 -0.406207 -0.000000 -1.303560 7.032740 -1.817360 16.377300 -0.000001 -0.000001 -7.974300 2.486700 -1.011960 6.456720 -0.000001 -0.000000 4.701920 -0.033362 1.980570 12.994200 -0.242716 4.980390 -90.782500 2.183680 -70.279200 5.348090 -0.000007 -0.000001 -40.800100 -17.076400 25.947200 24.328600 0.000019 0.000005 0.297118 38.675500 -0.475549 22.291600 -0.000001 0.000005 15.152100 3.162630 35.162700 12.994500 -0.242716 -4.980390 89.847300 0.734136 -78.248300 -5.348130 -0.000001 -0.000004 -62.471500 6.124520 -1.043390 -24.328900 0.000322 -0.000009 -4.023590 -0.549747 -82.196400 -22.291500 -0.000108 -0.000004 22.418100 5.669250 -17.223500 -2.192480 -6.469440 -0.000000 -178.709000 3.148420 -51.441600 39.081100 -0.000007 -0.000012 0.061818 -0.056119 47.765100 40.985400 -0.000006 -0.000013 -5.407170 -0.574254 -71.261500 11.754300 -0.000000 0.000003 0.002237 0.057217 -14.256000 -2.192510 6.469440 -0.000001 176.515000 7.356860 -176.119000 -39.081100 -0.002282 -0.040193 0.070225 -0.207431 17.875300 -40.985400 0.000008 0.000006 -6.049870 2.547410 -29.593800 -11.754300 -0.000006 -0.000006 0.002103 0.116825 -11.835800
0.000000 0.000000 0.000000 0.000000 0.000000 -0.000000 -2.296130 94.344800 -25.017300 -88.359900 3.167700 166.354000 15.735700 0.000005 -0.000001 134.538000 84.580600 -134.539000 8.984550 -0.406207 -0.000000 -0.034689 7.600300 -0.000347 16.377300 -0.000001 -0.000001 -8.501960 2.037170 -1.194610 6.456720 -0.000001 -0.000000 4.216060 -1.250840 1.494090 12.994200 -0.242716 4.980390 -90.746600 2.093560 -70.369500 5.348090 -0.000007 -0.000001 -40.441700 -15.405600 24.504200 24.328600 0.000019 0.000005 0.459854 35.797500 -0.786356 22.291600 -0.000001 0.000005 24.213100 3.368520 32.643100 12.994500 -0.242716 -4.980390 89.814300 0.903300 -78.382800 -5.348130 -0.000001 -0.000004 -62.299300 6.032540 -0.150418 -24.328900 0.000322 -0.000009 -5.073550 -0.184189 -87.924800 -22.291500 -0.000108 -0.000004 25.276200 5.684110 -20.643900 -2.192480 -6.469440 -0.000000 -174.499000 4.095250 -44.177600 39.081100 -0.000007 -0.000012 0.001309 -0.002409 28.521400 40.985400 -0.000006 -0.000013 -5.892880 4.345650 -74.707700 11.754300 -0.000000 0.000003 0.002243 0.057516 -14.243800 -2.192510 6.469440 -0.000001 -179.682000 4.740340 -173.577000 -39.081100 -0.002282 -0.040193 0.085950 -0.177531 24.961200 -40.985400 0.000008 0.000006 -2.570480 -4.230450 -25.536700 -11.754300 -0.000006 -0.000006 -0.000217 0.171249 -9.627360
0.000000 0.000000 0.000000 0.000000 0.000000 -0.000000 -2.258660 93.547000 -35.316200 -87.825700 3.502930 166.744000 15.735700 0.000005 -0.000001 133.090000 84.312700 -132.959000 8.984550 -0.406207 -0.000000 0.541049 7.759780 0.225798 16.377300 -0.000001 -0.000001 -9.108720 1.767970 -0.765970 6.456720 -0.000001 -0.000000 2.818770 -1.134350 0.929722 12.994200 -0.242716 4.980390 -90.677800 1.972840 -71.035400 5.348090 -0.000007 -0.000001 -42.502500 -16.620300 22.259300 24.328600 0.000019 0.000005 0.728620 33.653100 -1.314710 22.291600 -0.000001 0.000005 28.222700 3.564570 30.119700 12.994500 -0.242716 -4.980390 89.962800 0.188993 -78.860100 -5.348130 -0.000001 -0.000004 -64.439200 7.052920 1.328860 -24.328900 0.000322 -0.000009 -2.972260 -0.094439 -88.163500 -22.291500 -0.000108 -0.000004 30.019700 5.680500 -22.415600 -2.192480 -6.469440 -0.000000 -173.422000 3.886430 -39.331000 39.081100 -0.000007 -0.000012 -0.011542 0.039527 16.277300 40.985400 -0.000006 -0.000013 -7.344750 5.923580 -76.945000 11.754300 -0.000000 0.000003 0.002327 0.062537 -14.040300 -2.192510 6.469440 -0.000001 -178.776000 2.611430 -175.609000 -39.081100 -0.002282 -0.040193 0.153423 -0.191092 38.156700 -40.985400 0.000008 0.000006 -5.610960 -8.451370 -30.734300 -11.754300 -0.000006 -0.000006 -0.000016 0.167942 -9.761670
0.000000 0.000000 0.000000 0.000000 0.000000 -0.000000 -2.279590 91.764600 -45.858000 -87.920200 2.934170 168.428000 15.735700 0.000005 -0.000001 121.928000 83.933600 -121.754000 8.984550 -0.406207 -0.000000 2.536140 6.403180 0.206777 16.377300 -0.000001 -0.000001 -10.429000 1.819780 -0.475456 6.456720 -0.000001 -0.000000 0.716915 -0.152157 0.890931 12.994200 -0.242716 4.980390 -90.760900 2.322520 -71.853800 5.348090 -0.000007 -0.000001 -46.409700 -19.191300 18.043000 24.328600 0.000019 0.000005 0.954228 31.857400 -1.807710 22.291600 -0.000001 0.000005 25.837700 3.697680 28.354000 12.994500 -0.242716 -4.980390 90.077600 -0.383367 -78.559600 -5.348130 -0.000001 -0.000004 -66.852700 9.697830 2.702990 -24.328900 0.000322 -0.000009 -2.948000 -0.315467 -83.920100 -22.291500 -0.000108 -0.000004 28.534200 5.683380 -20.232900 -2.192480 -6.469440 -0.000000 -175.436000 1.853040 -36.272300 39.081100 -0.000007 -0.000012 -0.012611 0.039839 17.564700 40.985400 -0.000006 -0.000013 -7.258060 6.335350 -78.748400 11.754300 -0.000000 0.000003 0.002333 0.062934 -14.024200 -2.192510 6.469440 -0.000001 -178.852000 3.535590 -178.702000 -39.081100 -0.002282 -0.040193 0.320588 -0.245829 52.237800 -40.985400 0.000008 0.000006 -4.605430 -7.937560 -28.853700 -11.754300 -0.000006 -0.000006 -0.000535 0.176240 -9.424640
0.000000 0.000000 0.000000 0.000000 0.000000 -0.000000 -2.628510 89.114100 -55.189000 -89.264600 2.544690 166.904000 15.735700 0.000005 -0.000001 112.298000 84.615900 -112.467000 8.984550 -0.406207 -0.000000 2.208490 4.091030 -0.416869 16.377300 -0.000001 -0.000001 -11.465900 2.362890 -0.192572 6.456720 -0.000001 -0.000000 -1.265140 1.497080 0.550294 12.994200 -0.242716 4.980390 -91.179900 3.760680 -72.563400 5.348090 -0.000007 -0.000001 -51.041800 -18.116600 12.597700 24.328600 0.000019 0.000005 1.117000 28.610800 -2.332540 22.291600 -0.000001 0.000005 19.266900 3.928060 25.182500 12.994500 -0.242716 -4.980390 89.999500 0.001811 -77.937200 -5.348130 -0.000001 -0.000004 -67.733200 13.410700 5.290780 -24.328900 0.000322 -0.000009 -4.450010 -1.102190 -76.107800 -22.291500 -0.000108 -0.000004 19.873900 5.671670 -17.017900 -2.192480 -6.469440 -0.000000 -179.768000 0.213306 -43.560100 39.081100 -0.000007 -0.000012 0.375378 -0.565140 33.593700 40.985400 -0.000006 -0.000013 0.425142 6.694790 -69.844000 11.754300 -0.000000 0.000003 0.001361 0.027392 -15.465600 -2.192510 6.469440 -0.000001 179.597000 5.444410 169.784000 -39.081100 -0.002282 -0.040193 0.573844 -0.195391 71.102300 -40.985400 0.000008 0.000006 -3.474240 -8.296730 -29.484700 -11.754300 -0.000006 -0.000006 -0.000262 0.171975 -9.597890
